<svg xmlns:xlink="http://www.w3.org/1999/xlink" xmlns="http://www.w3.org/2000/svg" width="24" height="24" fill="none" stroke="currentColor" stroke-linecap="round" stroke-linejoin="round" stroke-width="2" viewBox="0 0 24 24" aria-hidden="true" data-darkreader-inline-stroke="" style="--darkreader-inline-stroke: currentColor;"><path d="M21 16V8a2 2 0 0 0-1-1.73l-7-4a2 2 0 0 0-2 0l-7 4A2 2 0 0 0 3 8v8a2 2 0 0 0 1 1.73l7 4a2 2 0 0 0 2 0l7-4A2 2 0 0 0 21 16" stroke="#C8EDF3" fill="none" stroke-width="2px"></path><path d="M3.29 7 12 12l8.71-5M12 22V12" stroke="#C8EDF3" fill="none" stroke-width="2px"></path></svg>