<?xml version="1.0" encoding="UTF-8"?>
<svg version="1.1" xmlns="http://www.w3.org/2000/svg" width="48" height="48">
<path d="M0 0 C15.84 0 31.68 0 48 0 C48 15.84 48 31.68 48 48 C32.16 48 16.32 48 0 48 C0 32.16 0 16.32 0 0 Z " fill="#1E2E42" transform="translate(0,0)"/>
<path d="M0 0 C1.12148438 0.00322266 2.24296875 0.00644531 3.3984375 0.00976562 C4.5740625 0.01814453 5.7496875 0.02652344 6.9609375 0.03515625 C8.14429687 0.03966797 9.32765625 0.04417969 10.546875 0.04882812 C13.47661257 0.06064158 16.40625022 0.07711367 19.3359375 0.09765625 C19.3359375 0.75765625 19.3359375 1.41765625 19.3359375 2.09765625 C18.41361328 2.37029297 18.41361328 2.37029297 17.47265625 2.6484375 C16.66441406 2.89980469 15.85617188 3.15117187 15.0234375 3.41015625 C13.82267578 3.77560547 13.82267578 3.77560547 12.59765625 4.1484375 C10.18283633 5.16191114 8.92169789 6.02396958 7.3359375 8.09765625 C7.08545114 11.22314642 7.08545114 11.22314642 7.3359375 14.09765625 C8.9859375 14.75765625 10.6359375 15.41765625 12.3359375 16.09765625 C12.3359375 17.74765625 12.3359375 19.39765625 12.3359375 21.09765625 C11.5109375 20.93265625 10.6859375 20.76765625 9.8359375 20.59765625 C3.47769429 19.68933579 -2.37745057 20.04988759 -8.6640625 21.09765625 C-8.4140625 18.22265625 -8.4140625 18.22265625 -7.6640625 15.09765625 C-5.6015625 13.72265625 -5.6015625 13.72265625 -3.6640625 13.09765625 C-3.9940625 12.10765625 -4.3240625 11.11765625 -4.6640625 10.09765625 C-6.54120221 9.47358759 -6.54120221 9.47358759 -8.7890625 9.22265625 C-13.84360421 8.26835877 -16.7581295 6.42185455 -20.6640625 3.09765625 C-20.6640625 2.43765625 -20.6640625 1.77765625 -20.6640625 1.09765625 C-19.74882812 1.10925781 -18.83359375 1.12085937 -17.890625 1.1328125 C-16.70210937 1.14183594 -15.51359375 1.15085937 -14.2890625 1.16015625 C-12.51402344 1.17755859 -12.51402344 1.17755859 -10.703125 1.1953125 C-6.92809153 1.0740068 -3.9236624 -0.01981648 0 0 Z " fill="#F0F1F2" transform="translate(23.6640625,14.90234375)"/>
<path d="M0 0 C1.12148438 0.00322266 2.24296875 0.00644531 3.3984375 0.00976562 C4.5740625 0.01814453 5.7496875 0.02652344 6.9609375 0.03515625 C8.14429687 0.03966797 9.32765625 0.04417969 10.546875 0.04882812 C13.47661257 0.06064158 16.40625022 0.07711367 19.3359375 0.09765625 C19.3359375 0.75765625 19.3359375 1.41765625 19.3359375 2.09765625 C14.92368013 3.56840871 11.85312131 4.46649983 7.3359375 3.09765625 C7.3359375 2.43765625 7.3359375 1.77765625 7.3359375 1.09765625 C3.7059375 1.09765625 0.0759375 1.09765625 -3.6640625 1.09765625 C-3.9940625 2.74765625 -4.3240625 4.39765625 -4.6640625 6.09765625 C-5.8515625 7.97265625 -5.8515625 7.97265625 -7.6640625 9.09765625 C-12.91113147 9.09765625 -16.93416245 6.63995778 -20.6640625 3.09765625 C-20.6640625 2.43765625 -20.6640625 1.77765625 -20.6640625 1.09765625 C-19.74882812 1.10925781 -18.83359375 1.12085937 -17.890625 1.1328125 C-16.70210937 1.14183594 -15.51359375 1.15085937 -14.2890625 1.16015625 C-12.51402344 1.17755859 -12.51402344 1.17755859 -10.703125 1.1953125 C-6.92809153 1.0740068 -3.9236624 -0.01981648 0 0 Z " fill="#E1E3E6" transform="translate(23.6640625,14.90234375)"/>
<path d="M0 0 C1.12148438 0.00322266 2.24296875 0.00644531 3.3984375 0.00976562 C4.5740625 0.01814453 5.7496875 0.02652344 6.9609375 0.03515625 C8.14429687 0.03966797 9.32765625 0.04417969 10.546875 0.04882812 C13.47661257 0.06064158 16.40625022 0.07711367 19.3359375 0.09765625 C19.3359375 0.75765625 19.3359375 1.41765625 19.3359375 2.09765625 C14.92368013 3.56840871 11.85312131 4.46649983 7.3359375 3.09765625 C7.3359375 2.43765625 7.3359375 1.77765625 7.3359375 1.09765625 C3.3759375 1.09765625 -0.5840625 1.09765625 -4.6640625 1.09765625 C-4.9940625 2.08765625 -5.3240625 3.07765625 -5.6640625 4.09765625 C-5.9940625 4.75765625 -6.3240625 5.41765625 -6.6640625 6.09765625 C-7.3240625 6.09765625 -7.9840625 6.09765625 -8.6640625 6.09765625 C-8.2890625 3.66015625 -8.2890625 3.66015625 -7.6640625 1.09765625 C-5.00228029 -0.23323485 -2.97666854 -0.01503368 0 0 Z " fill="#C3C7CD" transform="translate(23.6640625,14.90234375)"/>
<path d="M0 0 C1.66611905 -0.042721 3.33382885 -0.04063832 5 0 C6 1 6 1 6.0625 3.5625 C6.041875 4.366875 6.02125 5.17125 6 6 C5.154375 5.855625 4.30875 5.71125 3.4375 5.5625 C-0.03593149 4.9941203 -3.51445662 4.48797607 -7 4 C-7 3.67 -7 3.34 -7 3 C-5.02 3 -3.04 3 -1 3 C-0.67 2.01 -0.34 1.02 0 0 Z " fill="#C9CDD2" transform="translate(30,30)"/>
</svg>
