<?xml version="1.0" encoding="UTF-8"?>
<svg version="1.1" xmlns="http://www.w3.org/2000/svg" width="512" height="512">
<path d="M0 0 C2.65527344 1.25244141 2.65527344 1.25244141 5.359375 2.8515625 C6.88884766 3.74584961 6.88884766 3.74584961 8.44921875 4.65820312 C10.08310547 5.63176758 10.08310547 5.63176758 11.75 6.625 C12.90697352 7.30502178 14.06453713 7.98404047 15.22265625 8.66210938 C17.62665148 10.07067324 20.02805773 11.48350641 22.42773438 12.89941406 C27.9283488 16.14016978 33.46603409 19.31666323 39 22.5 C41.16684034 23.74969892 43.3335065 24.99969989 45.5 26.25 C47.10875 27.178125 47.10875 27.178125 48.75 28.125 C78 45 107.25 61.875 136.5 78.75 C137.57266113 79.36883057 138.64532227 79.98766113 139.75048828 80.62524414 C141.91557071 81.87435518 144.08060982 83.12354129 146.24560547 84.37280273 C151.68615706 87.51202309 157.12747216 90.64990563 162.5703125 93.78515625 C163.66859375 94.41808594 164.766875 95.05101563 165.8984375 95.703125 C167.9215791 96.86900321 169.94497682 98.03443721 171.96875 99.19921875 C173.94612119 100.33899035 175.90845847 101.50517039 177.85637665 102.69457817 C181.0879498 104.5869591 184.40811308 106.05798699 187.84925079 107.53126717 C203.8937315 114.87802642 203.8937315 114.87802642 207.37898445 121.69867659 C209.53578684 129.50818425 209.00905187 137.5392565 208.72460938 145.55810547 C208.71782992 148.2405284 208.72059979 150.92137603 208.73522949 153.60360718 C208.74775317 159.3563225 208.67317474 165.10245418 208.53752136 170.85351181 C208.34155242 179.16712343 208.27988239 187.47758674 208.24980956 195.79325725 C208.19741785 209.28633579 208.03809218 222.7759112 207.81054688 236.26708984 C207.58988397 249.36391799 207.42018988 262.45979111 207.31835938 275.55810547 C207.31205401 276.36689014 207.30574865 277.17567481 207.29925221 278.0089681 C207.26792887 282.06684063 207.23760047 286.12471987 207.20776653 290.1826036 C206.95939007 323.79094206 206.53706913 357.39503998 206 391 C151.83333333 422.25 97.66666667 453.5 43.5 484.75 C42.42588867 485.37003906 41.35177734 485.99007813 40.24511719 486.62890625 C38.09598426 487.86806926 35.9456082 489.10507894 33.79394531 490.33984375 C28.70898524 493.26141814 23.63959655 496.20344899 18.61242676 499.2232666 C16.23637058 500.64877251 13.85313376 502.06201836 11.46923828 503.47436523 C9.78875017 504.47688307 8.11882645 505.49704276 6.44921875 506.51757812 C5.42957031 507.12021484 4.40992188 507.72285156 3.359375 508.34375 C2.46702148 508.88193359 1.57466797 509.42011719 0.65527344 509.97460938 C-2.73502253 511.28384467 -4.52300494 510.97847078 -8 510 C-10.65527344 508.74755859 -10.65527344 508.74755859 -13.359375 507.1484375 C-14.88884766 506.25415039 -14.88884766 506.25415039 -16.44921875 505.34179688 C-17.53847656 504.69275391 -18.62773437 504.04371094 -19.75 503.375 C-20.90697352 502.69497822 -22.06453713 502.01595953 -23.22265625 501.33789062 C-25.62665148 499.92932676 -28.02805773 498.51649359 -30.42773438 497.10058594 C-35.9283488 493.85983022 -41.46603409 490.68333677 -47 487.5 C-49.16684034 486.25030108 -51.3335065 485.00030011 -53.5 483.75 C-54.5725 483.13125 -55.645 482.5125 -56.75 481.875 C-68.66666667 475 -80.58333333 468.125 -92.5 461.25 C-93.57266113 460.63116943 -94.64532227 460.01233887 -95.75048828 459.37475586 C-97.91557071 458.12564482 -100.08060982 456.87645871 -102.24560547 455.62719727 C-107.68615706 452.48797691 -113.12747216 449.35009437 -118.5703125 446.21484375 C-129.02206199 440.19252671 -139.46299548 434.15330663 -149.875 428.0625 C-159.59696385 422.37644838 -169.36304867 416.77031825 -179.15576172 411.20727539 C-181.32549297 409.9723419 -183.48007163 408.7104469 -185.61956024 407.42383003 C-188.95145838 405.4913301 -192.35955256 403.95997397 -195.89884186 402.4439373 C-211.89773325 395.11910703 -211.89773325 395.11910703 -215.37675285 388.30243921 C-217.53444911 380.49176338 -217.00909885 372.46206804 -216.72460938 364.44189453 C-216.71782992 361.7594716 -216.72059979 359.07862397 -216.73522949 356.39639282 C-216.74775317 350.6436775 -216.67317474 344.89754582 -216.53752136 339.14648819 C-216.34155242 330.83287657 -216.27988239 322.52241326 -216.24980956 314.20674275 C-216.19741785 300.71366421 -216.03809218 287.2240888 -215.81054688 273.73291016 C-215.58988397 260.63608201 -215.42018988 247.54020889 -215.31835938 234.44189453 C-215.31205401 233.63310986 -215.30574865 232.82432519 -215.29925221 231.9910319 C-215.26792887 227.93315937 -215.23760047 223.87528013 -215.20776653 219.8173964 C-214.95939007 186.20905794 -214.53706913 152.60496002 -214 119 C-213.21463867 118.55197021 -212.42927734 118.10394043 -211.62011719 117.64233398 C-208.64524653 115.94487436 -205.67067451 114.24689358 -202.69628906 112.54858398 C-201.42036264 111.82019197 -200.14432491 111.09199489 -198.86816406 110.36401367 C-190.55259401 105.62021012 -182.26028769 100.83969488 -174 96 C-165.36382054 90.94574045 -156.69395436 85.95393878 -148 81 C-138.27875494 75.46014067 -128.59105132 69.86625068 -118.93310547 64.21655273 C-108.40915375 58.06233258 -97.84619863 51.97630004 -87.28222656 45.89111328 C-81.85340058 42.76319852 -76.42680719 39.63141552 -71 36.5 C-68.83334417 35.24998121 -66.6666775 33.99998122 -64.5 32.75 C-63.4275 32.13125 -62.355 31.5125 -61.25 30.875 C-58 29 -54.75 27.125 -51.5 25.25 C-50.42588867 24.62996094 -49.35177734 24.00992187 -48.24511719 23.37109375 C-46.09598426 22.13193074 -43.9456082 20.89492106 -41.79394531 19.66015625 C-36.70898524 16.73858186 -31.63959655 13.79655101 -26.61242676 10.7767334 C-24.23637058 9.35122749 -21.85313376 7.93798164 -19.46923828 6.52563477 C-17.78875017 5.52311693 -16.11882645 4.50295724 -14.44921875 3.48242188 C-13.42957031 2.87978516 -12.40992188 2.27714844 -11.359375 1.65625 C-10.46702148 1.11806641 -9.57466797 0.57988281 -8.65527344 0.02539062 C-5.26497747 -1.28384467 -3.47699506 -0.97847078 0 0 Z " fill="#F16436" transform="translate(260,1)"/>
<path d="M0 0 C63.36 0 126.72 0 192 0 C192 6.6 192 13.2 192 20 C220.71 20 249.42 20 279 20 C273.92300826 32.69247936 262.34469542 40.02595105 250.22265625 45.3046875 C239.99552966 49.53476822 229.3142044 52.50776821 218.5625 55.0625 C203.97765944 58.56070899 189.15611045 64.65917444 180.87109375 77.7890625 C178.40046501 84.05980629 179.01772706 92.66368131 181.625 98.8125 C182.37988634 100.22856265 183.17208865 101.62535474 184 103 C184.38929688 103.70125 184.77859375 104.4025 185.1796875 105.125 C194.09015169 119.88789925 208.95576559 129.63717706 223 139 C224.02991784 141.58736366 224.89707454 144.0885885 225.69921875 146.74609375 C226.05908623 147.89646873 226.05908623 147.89646873 226.42622375 149.07008362 C226.93123476 150.69171575 227.43104215 152.31497622 227.92602539 153.93969727 C228.68452498 156.42774127 229.45896223 158.91037179 230.23632812 161.39257812 C230.72490252 162.96845758 231.21256361 164.54462054 231.69921875 166.12109375 C231.93041916 166.86491806 232.16161957 167.60874237 232.39982605 168.37510681 C233.30390965 171.35534153 234 173.86689139 234 177 C192.42 177 150.84 177 108 177 C112.24523082 172.04723071 115.72193662 168.30379491 120.875 164.625 C121.85218994 163.92238037 121.85218994 163.92238037 122.84912109 163.20556641 C136.91884655 153.28171557 152.65945857 145.44684714 169 140 C128.14761836 138.58859334 90.25823054 150.50358135 59 177 C60.21812981 169.43668656 62.34816083 162.22162785 64.75 154.96484375 C65.55188603 152.52108435 66.16143966 150.22307162 66.6875 147.69140625 C68.89863534 138.0302524 75.20977183 134.53886526 83.01611328 129.35888672 C96.28109764 120.27287848 107.8302786 108.5091642 113 93 C113.58688805 86.64580826 113.41682494 80.5407972 110 75 C101.23812186 64.69190807 87.70080119 61.58961862 75 59 C73.78884521 58.74379883 73.78884521 58.74379883 72.55322266 58.48242188 C62.53686607 56.57589442 52.41169759 56.31626478 42.25 55.875 C40.37757375 55.78841569 38.50517745 55.70118111 36.6328125 55.61328125 C32.08885203 55.40135985 27.54457759 55.19822772 23 55 C23.02525757 53.81410278 23.02525757 53.81410278 23.05102539 52.60424805 C24.18673008 35.4935746 24.18673008 35.4935746 18 20.375 C16.3755777 18.86975382 14.7079407 17.40977035 13 16 C11.37105777 14.25193004 9.7662951 12.48099029 8.1875 10.6875 C7.47980469 9.92824219 6.77210937 9.16898438 6.04296875 8.38671875 C4 6 4 6 0 0 Z " fill="#FEFEFD" transform="translate(117,153)"/>
<path d="M0 0 C8.95163078 4.32136626 17.54666455 8.99356757 26.08203125 14.08203125 C31.83363018 17.50869311 37.63554776 20.84703417 43.4375 24.1875 C44.54383789 24.82494141 45.65017578 25.46238281 46.79003906 26.11914062 C49.06155677 27.42779629 51.33320497 28.73622549 53.60498047 30.04443359 C59.0716998 33.19332054 64.53574887 36.34683264 70 39.5 C72.16665311 40.7500235 74.33331979 42.00002347 76.5 43.25 C98.16666667 55.75 119.83333333 68.25 141.5 80.75 C142.57282227 81.36891113 143.64564453 81.98782227 144.75097656 82.62548828 C146.91447476 83.87371034 149.07788643 85.12208239 151.24121094 86.37060547 C156.70565017 89.52405256 162.17163645 92.67476096 167.640625 95.8203125 C168.73544189 96.45074463 169.83025879 97.08117676 170.95825195 97.73071289 C173.132658 98.98200834 175.30825598 100.23123509 177.48510742 101.47827148 C182.82161556 104.54510377 188.11302681 107.66425307 193.34765625 110.90234375 C194.85634277 111.82635986 194.85634277 111.82635986 196.39550781 112.76904297 C198.29379275 113.93616727 200.18308146 115.11809488 202.06152344 116.31689453 C203.32464355 117.09009033 203.32464355 117.09009033 204.61328125 117.87890625 C205.34329346 118.3385376 206.07330566 118.79816895 206.82543945 119.27172852 C209.03249093 120.23755747 209.03249093 120.23755747 211.43920898 119.31420898 C214.10522447 117.94599835 216.74595712 116.56051118 219.359375 115.09375 C220.38345459 114.52019775 221.40753418 113.94664551 222.46264648 113.35571289 C223.54747314 112.74332764 224.6322998 112.13094238 225.75 111.5 C226.87672119 110.86634521 228.00344238 110.23269043 229.16430664 109.57983398 C235.95517743 105.74999436 242.70984746 101.86664399 249.4152832 97.8894043 C255.72724525 94.14695337 262.07941601 90.47596521 268.4375 86.8125 C269.54472412 86.17449463 270.65194824 85.53648926 271.79272461 84.87915039 C274.06337068 83.57110523 276.33412358 82.26324552 278.60498047 80.95556641 C284.0716998 77.80667946 289.53574887 74.65316736 295 71.5 C297.16665311 70.2499765 299.33331979 68.99997653 301.5 67.75 C302.5725 67.13125 303.645 66.5125 304.75 65.875 C340.5 45.25 340.5 45.25 343.75048828 43.37475586 C345.91557071 42.12564482 348.08060982 40.87645871 350.24560547 39.62719727 C355.68615706 36.48797691 361.12747216 33.35009437 366.5703125 30.21484375 C368.75523931 28.95578292 370.94013529 27.69666859 373.125 26.4375 C374.19105469 25.82342285 375.25710938 25.2093457 376.35546875 24.57666016 C381.78747353 21.44401706 387.2097879 18.29604403 392.6171875 15.12109375 C393.68952637 14.49211182 394.76186523 13.86312988 395.86669922 13.21508789 C397.88304083 12.0309546 399.89782019 10.84415496 401.91064453 9.65405273 C402.82700684 9.11594971 403.74336914 8.57784668 404.6875 8.0234375 C405.47511719 7.55856934 406.26273437 7.09370117 407.07421875 6.61474609 C411.31169783 4.27607064 415.67096945 2.16451527 420 0 C420 9.57 420 19.14 420 29 C338.75 75.875 338.75 75.875 257.5 122.75 C256.42588867 123.37003906 255.35177734 123.99007812 254.24511719 124.62890625 C252.09598426 125.86806926 249.9456082 127.10507894 247.79394531 128.33984375 C242.70898524 131.26141814 237.63959655 134.20344899 232.61242676 137.2232666 C230.23637058 138.64877251 227.85313376 140.06201836 225.46923828 141.47436523 C223.78875017 142.47688307 222.11882645 143.49704276 220.44921875 144.51757812 C219.42957031 145.12021484 218.40992188 145.72285156 217.359375 146.34375 C216.46702148 146.88193359 215.57466797 147.42011719 214.65527344 147.97460938 C211.26497747 149.28384467 209.47699506 148.97847078 206 148 C203.34472656 146.74755859 203.34472656 146.74755859 200.640625 145.1484375 C199.11115234 144.25415039 199.11115234 144.25415039 197.55078125 143.34179688 C196.46152344 142.69275391 195.37226563 142.04371094 194.25 141.375 C193.09302648 140.69497822 191.93546287 140.01595953 190.77734375 139.33789062 C188.37334852 137.92932676 185.97194227 136.51649359 183.57226562 135.10058594 C178.0716512 131.85983022 172.53396591 128.68333677 167 125.5 C164.83315966 124.25030108 162.6664935 123.00030011 160.5 121.75 C159.4275 121.13125 158.355 120.5125 157.25 119.875 C145.33333333 113 133.41666667 106.125 121.5 99.25 C120.42733887 98.63116943 119.35467773 98.01233887 118.24951172 97.37475586 C116.08442929 96.12564482 113.91939018 94.87645871 111.75439453 93.62719727 C106.31384294 90.48797691 100.87252784 87.35009437 95.4296875 84.21484375 C84.97793801 78.19252671 74.53700452 72.15330663 64.125 66.0625 C57.21899967 62.0234113 50.30143867 58.00579708 43.34628296 54.05184937 C40.38008156 52.36518383 37.42327057 50.66566195 34.48388672 48.93261719 C28.74405076 45.56803749 23.02797383 42.50434639 16.890625 39.89453125 C3.8483925 34.0315265 3.8483925 34.0315265 0 29 C-2.76790712 19.60964842 -1.48765241 9.53051167 0 0 Z " fill="#FEFEFE" transform="translate(46,363)"/>
</svg>
