<?xml version="1.0" encoding="UTF-8"?>
<svg version="1.1" xmlns="http://www.w3.org/2000/svg" width="200" height="200">
<path d="M0 0 C4.29 0 8.58 0 13 0 C13 4.29 13 8.58 13 13 C17.29 13 21.58 13 26 13 C26 16.96 26 20.92 26 25 C29.96 25 33.92 25 38 25 C38 29.29 38 33.58 38 38 C42.29 38 46.58 38 51 38 C51 41.96 51 45.92 51 50 C54.96 50 58.92 50 63 50 C63 54.29 63 58.58 63 63 C67.29 63 71.58 63 76 63 C76 71.25 76 79.5 76 88 C71.71 88 67.42 88 63 88 C63 92.29 63 96.58 63 101 C54.75 101 46.5 101 38 101 C38 104.96 38 108.92 38 113 C34.04 113 30.08 113 26 113 C26 117.29 26 121.58 26 126 C21.71 126 17.42 126 13 126 C13 129.96 13 133.92 13 138 C9.04 138 5.08 138 1 138 C1 146.25 1 154.5 1 163 C-3.29 163 -7.58 163 -12 163 C-12 167.29 -12 171.58 -12 176 C-20.25 176 -28.5 176 -37 176 C-37 171.71 -37 167.42 -37 163 C-41.29 163 -45.58 163 -50 163 C-50 159.04 -50 155.08 -50 151 C-53.96 151 -57.92 151 -62 151 C-62 146.71 -62 142.42 -62 138 C-66.29 138 -70.58 138 -75 138 C-75 134.04 -75 130.08 -75 126 C-78.96 126 -82.92 126 -87 126 C-87 117.42 -87 108.84 -87 100 C-83.04 100 -79.08 100 -75 100 C-75 96.04 -75 92.08 -75 88 C-70.71 88 -66.42 88 -62 88 C-62 83.71 -62 79.42 -62 75 C-58.04 75 -54.08 75 -50 75 C-50 71.04 -50 67.08 -50 63 C-45.71 63 -41.42 63 -37 63 C-37 58.71 -37 54.42 -37 50 C-33.04 50 -29.08 50 -25 50 C-25 46.04 -25 42.08 -25 38 C-20.71 38 -16.42 38 -12 38 C-12 29.75 -12 21.5 -12 13 C-8.04 13 -4.08 13 0 13 C0 8.71 0 4.42 0 0 Z " fill="#D6CBB0" transform="translate(112,12)"/>
<path d="M0 0 C4.29 0 8.58 0 13 0 C13 4.29 13 8.58 13 13 C17.29 13 21.58 13 26 13 C26 16.96 26 20.92 26 25 C29.96 25 33.92 25 38 25 C38 29.29 38 33.58 38 38 C42.29 38 46.58 38 51 38 C51 41.96 51 45.92 51 50 C54.96 50 58.92 50 63 50 C63 54.29 63 58.58 63 63 C67.29 63 71.58 63 76 63 C76 71.25 76 79.5 76 88 C71.71 88 67.42 88 63 88 C63 92.29 63 96.58 63 101 C54.75 101 46.5 101 38 101 C38 104.96 38 108.92 38 113 C34.04 113 30.08 113 26 113 C26 117.29 26 121.58 26 126 C21.71 126 17.42 126 13 126 C13 129.96 13 133.92 13 138 C9.04 138 5.08 138 1 138 C1 146.25 1 154.5 1 163 C-3.29 163 -7.58 163 -12 163 C-12 167.29 -12 171.58 -12 176 C-20.25 176 -28.5 176 -37 176 C-37 171.71 -37 167.42 -37 163 C-32.71 163 -28.42 163 -24 163 C-24 159.04 -24 155.08 -24 151 C-20.04 151 -16.08 151 -12 151 C-12 138.46 -12 125.92 -12 113 C-3.75 113 4.5 113 13 113 C13 104.75 13 96.5 13 88 C16.96 88 20.92 88 25 88 C25 79.75 25 71.5 25 63 C21.04 63 17.08 63 13 63 C13 59.04 13 55.08 13 51 C8.71 51 4.42 51 0 51 C0 46.71 0 42.42 0 38 C-3.96 38 -7.92 38 -12 38 C-12 29.75 -12 21.5 -12 13 C-8.04 13 -4.08 13 0 13 C0 8.71 0 4.42 0 0 Z " fill="#7C7564" transform="translate(112,12)"/>
<path d="M0 0 C4.29 0 8.58 0 13 0 C13 12.21 13 24.42 13 37 C9.04 37 5.08 37 1 37 C1 41.29 1 45.58 1 50 C-3.29 50 -7.58 50 -12 50 C-12 53.96 -12 57.92 -12 62 C-15.96 62 -19.92 62 -24 62 C-24 70.25 -24 78.5 -24 87 C-28.29 87 -32.58 87 -37 87 C-37 91.29 -37 95.58 -37 100 C-45.25 100 -53.5 100 -62 100 C-62 95.71 -62 91.42 -62 87 C-57.71 87 -53.42 87 -49 87 C-49 83.04 -49 79.08 -49 75 C-45.04 75 -41.08 75 -37 75 C-37 62.46 -37 49.92 -37 37 C-28.75 37 -20.5 37 -12 37 C-12 28.75 -12 20.5 -12 12 C-8.04 12 -4.08 12 0 12 C0 8.04 0 4.08 0 0 Z " fill="#B8AE99" transform="translate(137,88)"/>
<path d="M0 0 C8.25 0 16.5 0 25 0 C25 3.96 25 7.92 25 12 C28.96 12 32.92 12 37 12 C37 20.25 37 28.5 37 37 C40.96 37 44.92 37 49 37 C49 45.25 49 53.5 49 62 C45.04 62 41.08 62 37 62 C37 58.04 37 54.08 37 50 C33.04 50 29.08 50 25 50 C25 45.71 25 41.42 25 37 C20.71 37 16.42 37 12 37 C12 33.04 12 29.08 12 25 C8.04 25 4.08 25 0 25 C0 16.75 0 8.5 0 0 Z " fill="#B9AF99" transform="translate(113,25)"/>
<path d="M0 0 C4.29 0 8.58 0 13 0 C13 4.29 13 8.58 13 13 C8.71 13 4.42 13 0 13 C0.33 20.92 0.66 28.84 1 37 C13.21 37 25.42 37 38 37 C38 49.54 38 62.08 38 75 C33.71 75 29.42 75 25 75 C25 71.04 25 67.08 25 63 C21.04 63 17.08 63 13 63 C13 58.71 13 54.42 13 50 C8.71 50 4.42 50 0 50 C0 46.04 0 42.08 0 38 C-3.96 38 -7.92 38 -12 38 C-12 29.42 -12 20.84 -12 12 C-8.04 12 -4.08 12 0 12 C0 8.04 0 4.08 0 0 Z " fill="#9B937F" transform="translate(37,100)"/>
<path d="M0 0 C8.25 0 16.5 0 25 0 C25 4.29 25 8.58 25 13 C29.29 13 33.58 13 38 13 C38 16.96 38 20.92 38 25 C41.96 25 45.92 25 50 25 C50 28.96 50 32.92 50 37 C42.08 37 34.16 37 26 37 C26 33.04 26 29.08 26 25 C13.46 25 0.92 25 -12 25 C-12 20.71 -12 16.42 -12 12 C-8.04 12 -4.08 12 0 12 C0 8.04 0 4.08 0 0 Z " fill="#DBD0B4" transform="translate(87,50)"/>
<path d="M0 0 C4.29 0 8.58 0 13 0 C13 8.25 13 16.5 13 25 C8.71 25 4.42 25 0 25 C0 29.29 0 33.58 0 38 C-8.25 38 -16.5 38 -25 38 C-25 33.71 -25 29.42 -25 25 C-20.71 25 -16.42 25 -12 25 C-12 21.04 -12 17.08 -12 13 C-8.04 13 -4.08 13 0 13 C0 8.71 0 4.42 0 0 Z " fill="#363228" transform="translate(100,150)"/>
<path d="M0 0 C4.29 0 8.58 0 13 0 C13 3.96 13 7.92 13 12 C16.96 12 20.92 12 25 12 C25 16.29 25 20.58 25 25 C29.29 25 33.58 25 38 25 C38 33.25 38 41.5 38 50 C33.71 50 29.42 50 25 50 C25 45.71 25 41.42 25 37 C21.04 37 17.08 37 13 37 C12.67 29.08 12.34 21.16 12 13 C8.04 12.67 4.08 12.34 0 12 C0 8.04 0 4.08 0 0 Z " fill="#363228" transform="translate(150,50)"/>
<path d="M0 0 C4.29 0 8.58 0 13 0 C13 12.21 13 24.42 13 37 C4.75 37 -3.5 37 -12 37 C-12 28.75 -12 20.5 -12 12 C-8.04 12 -4.08 12 0 12 C0 8.04 0 4.08 0 0 Z " fill="#B9AF99" transform="translate(137,88)"/>
<path d="M0 0 C4.29 0 8.58 0 13 0 C13 4.29 13 8.58 13 13 C8.71 13 4.42 13 0 13 C0.33 20.92 0.66 28.84 1 37 C4.96 37.33 8.92 37.66 13 38 C13 41.96 13 45.92 13 50 C8.71 50 4.42 50 0 50 C0 46.04 0 42.08 0 38 C-3.96 38 -7.92 38 -12 38 C-12 29.42 -12 20.84 -12 12 C-8.04 12 -4.08 12 0 12 C0 8.04 0 4.08 0 0 Z " fill="#353127" transform="translate(37,100)"/>
<path d="M0 0 C8.25 0 16.5 0 25 0 C25 4.29 25 8.58 25 13 C21.04 13 17.08 13 13 13 C13 16.96 13 20.92 13 25 C8.71 25 4.42 25 0 25 C0 16.75 0 8.5 0 0 Z " fill="#ADA593" transform="translate(75,150)"/>
<path d="M0 0 C4.29 0 8.58 0 13 0 C13 3.96 13 7.92 13 12 C17.29 12 21.58 12 26 12 C26 15.96 26 19.92 26 24 C9.0638517 25.47270855 9.0638517 25.47270855 1 25 C0 24 0 24 -0.11352539 21.68334961 C-0.10828857 20.68311768 -0.10305176 19.68288574 -0.09765625 18.65234375 C-0.09443359 17.57275391 -0.09121094 16.49316406 -0.08789062 15.38085938 C-0.07951172 14.24455078 -0.07113281 13.10824219 -0.0625 11.9375 C-0.05798828 10.79732422 -0.05347656 9.65714844 -0.04882812 8.48242188 C-0.0369976 5.65492582 -0.0190615 2.82745655 0 0 Z " fill="#908976" transform="translate(37,113)"/>
<path d="M0 0 C3.96 0 7.92 0 12 0 C12 3.96 12 7.92 12 12 C16.29 12 20.58 12 25 12 C25 16.29 25 20.58 25 25 C16.75 25 8.5 25 0 25 C0 16.75 0 8.5 0 0 Z " fill="#363228" transform="translate(150,88)"/>
<path d="M0 0 C3.96 0 7.92 0 12 0 C12 3.96 12 7.92 12 12 C15.96 12 19.92 12 24 12 C24 16.29 24 20.58 24 25 C16.08 25 8.16 25 0 25 C0 16.75 0 8.5 0 0 Z " fill="#C2B8A1" transform="translate(113,25)"/>
<path d="M0 0 C4.29 0 8.58 0 13 0 C13 4.29 13 8.58 13 13 C9.04 13 5.08 13 1 13 C1 16.96 1 20.92 1 25 C-3.29 25 -7.58 25 -12 25 C-12 20.71 -12 16.42 -12 12 C-8.04 12 -4.08 12 0 12 C0 8.04 0 4.08 0 0 Z " fill="#3B372D" transform="translate(62,75)"/>
<path d="M0 0 C4.29 0 8.58 0 13 0 C13 4.29 13 8.58 13 13 C9.04 13 5.08 13 1 13 C1 16.96 1 20.92 1 25 C-3.29 25 -7.58 25 -12 25 C-12 20.71 -12 16.42 -12 12 C-8.04 12 -4.08 12 0 12 C0 8.04 0 4.08 0 0 Z " fill="#3B372C" transform="translate(87,50)"/>
<path d="M0 0 C4.29 0 8.58 0 13 0 C13 4.29 13 8.58 13 13 C16.96 13 20.92 13 25 13 C25 16.96 25 20.92 25 25 C20.71 25 16.42 25 12 25 C12 21.04 12 17.08 12 13 C8.04 13 4.08 13 0 13 C0 8.71 0 4.42 0 0 Z " fill="#343027" transform="translate(50,150)"/>
<path d="M0 0 C4.29 0 8.58 0 13 0 C13 3.96 13 7.92 13 12 C16.96 12 20.92 12 25 12 C25 16.29 25 20.58 25 25 C21.04 25 17.08 25 13 25 C12.67 21.04 12.34 17.08 12 13 C8.04 12.67 4.08 12.34 0 12 C0 8.04 0 4.08 0 0 Z " fill="#353228" transform="translate(125,25)"/>
<path d="M0 0 C3.96 0 7.92 0 12 0 C12 8.25 12 16.5 12 25 C8.04 25 4.08 25 0 25 C0 16.75 0 8.5 0 0 Z " fill="#38342A" transform="translate(100,25)"/>
<path d="M0 0 C3.96 0 7.92 0 12 0 C12 7.92 12 15.84 12 24 C8.04 24 4.08 24 0 24 C0 16.08 0 8.16 0 0 Z " fill="#BCB29C" transform="translate(150,63)"/>
<path d="M0 0 C0 0.33 0 0.66 0 1 C-3.96 1 -7.92 1 -12 1 C-12 4.96 -12 8.92 -12 13 C-16.29 13 -20.58 13 -25 13 C-25 9.04 -25 5.08 -25 1 C-16.62844621 0.19310325 -8.40842778 -0.12205782 0 0 Z " fill="#948C79" transform="translate(100,162)"/>
<path d="M0 0 C4.29 0 8.58 0 13 0 C13 4.29 13 8.58 13 13 C8.71 13 4.42 13 0 13 C0 8.71 0 4.42 0 0 Z " fill="#333026" transform="translate(125,125)"/>
<path d="M0 0 C4.29 0 8.58 0 13 0 C13 4.29 13 8.58 13 13 C8.71 13 4.42 13 0 13 C0 8.71 0 4.42 0 0 Z " fill="#333026" transform="translate(112,12)"/>
<path d="M0 0 C7.92 0 15.84 0 24 0 C24 0.33 24 0.66 24 1 C20.04 1 16.08 1 12 1 C12 4.96 12 8.92 12 13 C8.04 13 4.08 13 0 13 C0 8.71 0 4.42 0 0 Z " fill="#B9AF99" transform="translate(138,62)"/>
<path d="M0 0 C3.96 0 7.92 0 12 0 C12 4.29 12 8.58 12 13 C8.04 13 4.08 13 0 13 C0 8.71 0 4.42 0 0 Z " fill="#968E7A" transform="translate(63,150)"/>
<path d="M0 0 C4.29 0 8.58 0 13 0 C13 3.96 13 7.92 13 12 C8.71 12 4.42 12 0 12 C0 8.04 0 4.08 0 0 Z " fill="#3B372D" transform="translate(50,150)"/>
<path d="M0 0 C3.96 0 7.92 0 12 0 C12 4.29 12 8.58 12 13 C8.04 13 4.08 13 0 13 C0 8.71 0 4.42 0 0 Z " fill="#AFA795" transform="translate(63,137)"/>
<path d="M0 0 C4.29 0 8.58 0 13 0 C13 3.96 13 7.92 13 12 C8.71 12 4.42 12 0 12 C0 8.04 0 4.08 0 0 Z " fill="#AFA795" transform="translate(50,125)"/>
<path d="M0 0 C3.96 0 7.92 0 12 0 C12 4.29 12 8.58 12 13 C8.04 13 4.08 13 0 13 C0 8.71 0 4.42 0 0 Z " fill="#3C382E" transform="translate(38,100)"/>
<path d="M0 0 C3.96 0 7.92 0 12 0 C12 3.96 12 7.92 12 12 C8.04 12 4.08 12 0 12 C0 8.04 0 4.08 0 0 Z " fill="#BCB29C" transform="translate(88,150)"/>
<path d="M0 0 C3.96 0 7.92 0 12 0 C12 3.96 12 7.92 12 12 C8.04 12 4.08 12 0 12 C0 8.04 0 4.08 0 0 Z " fill="#38342A" transform="translate(113,138)"/>
<path d="M0 0 C3.96 0 7.92 0 12 0 C12 3.96 12 7.92 12 12 C8.04 12 4.08 12 0 12 C0 8.04 0 4.08 0 0 Z " fill="#38342A" transform="translate(138,113)"/>
<path d="M0 0 C3.96 0 7.92 0 12 0 C12 3.96 12 7.92 12 12 C8.04 12 4.08 12 0 12 C0 8.04 0 4.08 0 0 Z " fill="#AEA694" transform="translate(38,113)"/>
<path d="M0 0 C3.96 0 7.92 0 12 0 C12 3.96 12 7.92 12 12 C8.04 12 4.08 12 0 12 C0 8.04 0 4.08 0 0 Z " fill="#807A6D" transform="translate(163,88)"/>
<path d="M0 0 C3.96 0 7.92 0 12 0 C12 3.96 12 7.92 12 12 C8.04 12 4.08 12 0 12 C0 8.04 0 4.08 0 0 Z " fill="#38342A" transform="translate(138,75)"/>
<path d="M0 0 C3.96 0 7.92 0 12 0 C12 3.96 12 7.92 12 12 C8.04 12 4.08 12 0 12 C0 8.04 0 4.08 0 0 Z " fill="#DBD0B4" transform="translate(150,63)"/>
<path d="M0 0 C3.96 0 7.92 0 12 0 C12 3.96 12 7.92 12 12 C8.04 12 4.08 12 0 12 C0 8.04 0 4.08 0 0 Z " fill="#38342A" transform="translate(125,63)"/>
<path d="M0 0 C3.96 0 7.92 0 12 0 C12 3.96 12 7.92 12 12 C8.04 12 4.08 12 0 12 C0 8.04 0 4.08 0 0 Z " fill="#C6BCA5" transform="translate(88,63)"/>
<path d="M0 0 C3.96 0 7.92 0 12 0 C12 3.96 12 7.92 12 12 C8.04 12 4.08 12 0 12 C0 8.04 0 4.08 0 0 Z " fill="#DBD0B4" transform="translate(138,50)"/>
<path d="M0 0 C3.96 0 7.92 0 12 0 C12 3.96 12 7.92 12 12 C8.04 12 4.08 12 0 12 C0 8.04 0 4.08 0 0 Z " fill="#38342A" transform="translate(113,50)"/>
<path d="M0 0 C3.96 0 7.92 0 12 0 C12 3.96 12 7.92 12 12 C8.04 12 4.08 12 0 12 C0 8.04 0 4.08 0 0 Z " fill="#DBD0B4" transform="translate(125,38)"/>
<path d="M0 0 C3.96 0 7.92 0 12 0 C12 3.96 12 7.92 12 12 C8.04 12 4.08 12 0 12 C0 8.04 0 4.08 0 0 Z " fill="#DBD0B4" transform="translate(113,25)"/>
<path d="M0 0 C0.33 0 0.66 0 1 0 C1 3.96 1 7.92 1 12 C9.25 12 17.5 12 26 12 C26 16.29 26 20.58 26 25 C25.67 25 25.34 25 25 25 C25 21.04 25 17.08 25 13 C17.08 13 9.16 13 1 13 C1 16.96 1 20.92 1 25 C0.67 25 0.34 25 0 25 C0 21.04 0 17.08 0 13 C-3.96 13 -7.92 13 -12 13 C-12 12.67 -12 12.34 -12 12 C-8.04 12 -4.08 12 0 12 C0 8.04 0 4.08 0 0 Z " fill="#D0C6AC" transform="translate(87,100)"/>
<path d="M0 0 C0.33 0 0.66 0 1 0 C1 3.96 1 7.92 1 12 C8.92 12 16.84 12 25 12 C25 12.33 25 12.66 25 13 C17.08 13 9.16 13 1 13 C1 16.96 1 20.92 1 25 C0.67 25 0.34 25 0 25 C0 21.04 0 17.08 0 13 C-3.96 13 -7.92 13 -12 13 C-12 12.67 -12 12.34 -12 12 C-8.04 12 -4.08 12 0 12 C0 8.04 0 4.08 0 0 Z " fill="#D0C6AC" transform="translate(112,75)"/>
</svg>
